# WeaponHunter PlayerWeapon block replacement
mtllib PlayerWeaponBlock.mtl
o PlayerWeaponBlock
g Blade
v 0.0500 -0.1000 -1.5000
v 0.0500 -0.1000 0.0500
v -0.0500 -0.1000 -1.5000
v -0.0500 -0.1000 0.0500
v 0.0500 0.1000 -1.5000
v 0.0500 0.1000 0.0500
v -0.0500 0.1000 -1.5000
v -0.0500 0.1000 0.0500
vn 0 0 -1
vn 0 0 1
vn 0 -1 0
vn 0 1 0
vn -1 0 0
vn 1 0 0
usemtl Blade
f 1//1 3//1 7//1
f 1//1 7//1 5//1
f 2//2 6//2 8//2
f 2//2 8//2 4//2
f 1//3 2//3 4//3
f 1//3 4//3 3//3
f 5//4 7//4 8//4
f 5//4 8//4 6//4
f 3//5 4//5 8//5
f 3//5 8//5 7//5
f 1//6 5//6 6//6
f 1//6 6//6 2//6
g Handle
v 0.0500 -0.0600 0.0500
v 0.0500 -0.0600 0.8500
v -0.0500 -0.0600 0.0500
v -0.0500 -0.0600 0.8500
v 0.0500 0.0600 0.0500
v 0.0500 0.0600 0.8500
v -0.0500 0.0600 0.0500
v -0.0500 0.0600 0.8500
vn 0 0 -1
vn 0 0 1
vn 0 -1 0
vn 0 1 0
vn -1 0 0
vn 1 0 0
usemtl Handle
f 9//7 11//7 15//7
f 9//7 15//7 13//7
f 10//8 14//8 16//8
f 10//8 16//8 12//8
f 9//9 10//9 12//9
f 9//9 12//9 11//9
f 13//10 15//10 16//10
f 13//10 16//10 14//10
f 11//11 12//11 16//11
f 11//11 16//11 15//11
f 9//12 13//12 14//12
f 9//12 14//12 10//12
g Guard
v 0.0600 -0.2500 0.0200
v 0.0600 -0.2500 0.1200
v -0.0600 -0.2500 0.0200
v -0.0600 -0.2500 0.1200
v 0.0600 0.2500 0.0200
v 0.0600 0.2500 0.1200
v -0.0600 0.2500 0.0200
v -0.0600 0.2500 0.1200
vn 0 0 -1
vn 0 0 1
vn 0 -1 0
vn 0 1 0
vn -1 0 0
vn 1 0 0
usemtl Guard
f 17//13 19//13 23//13
f 17//13 23//13 21//13
f 18//14 22//14 24//14
f 18//14 24//14 20//14
f 17//15 18//15 20//15
f 17//15 20//15 19//15
f 21//16 23//16 24//16
f 21//16 24//16 22//16
f 19//17 20//17 24//17
f 19//17 24//17 23//17
f 17//18 21//18 22//18
f 17//18 22//18 18//18
