{
  "asset": {
    "generator": "Khronos glTF Blender I/O v5.1.20",
    "version": "2.0"
  },
  "extensionsUsed": [
    "KHR_materials_specular"
  ],
  "scene": 0,
  "scenes": [
    {
      "name": "Scene",
      "nodes": [
        0
      ]
    }
  ],
  "nodes": [
    {
      "name": "Tuna_Rig",
      "rotation": [
        -0.02012075111269951,
        0,
        0,
        0.9997975826263428
      ],
      "translation": [
        0,
        0.6498532295227051,
        0
      ],
      "children": [
        1,
        2
      ]
    },
    {
      "name": "Tuna_300Poly",
      "mesh": 0,
      "skin": 0
    },
    {
      "name": "Spine_Root",
      "translation": [
        0.75,
        0,
        0
      ],
      "children": [
        3
      ]
    },
    {
      "name": "Spine_Mid",
      "translation": [
        -0.7,
        0,
        0
      ],
      "children": [
        4
      ]
    },
    {
      "name": "Tail_Base",
      "translation": [
        -0.75,
        0,
        0
      ],
      "children": [
        5
      ]
    },
    {
      "name": "Tail_Tip",
      "translation": [
        -0.75,
        0,
        0
      ]
    }
  ],
  "materials": [
    {
      "doubleSided": true,
      "extensions": {
        "KHR_materials_specular": {
          "specularColorFactor": [
            1.3133333921432495,
            1.3133333921432495,
            1.3133333921432495
          ]
        }
      },
      "name": "silver",
      "pbrMetallicRoughness": {
        "baseColorTexture": {
          "index": 0
        },
        "metallicFactor": 0,
        "roughnessFactor": 0.7316718101501465
      }
    },
    {
      "doubleSided": true,
      "extensions": {
        "KHR_materials_specular": {
          "specularFactor": 0.8333333134651184
        }
      },
      "name": "deep_blue",
      "pbrMetallicRoughness": {
        "baseColorTexture": {
          "index": 1
        },
        "metallicFactor": 0,
        "roughnessFactor": 0.7809109687805176
      }
    },
    {
      "doubleSided": true,
      "extensions": {
        "KHR_materials_specular": {
          "specularColorFactor": [
            1.119999885559082,
            1.119999885559082,
            1.119999885559082
          ]
        }
      },
      "name": "pale_silver",
      "pbrMetallicRoughness": {
        "baseColorTexture": {
          "index": 2
        },
        "metallicFactor": 0,
        "roughnessFactor": 0.7633568048477173
      }
    },
    {
      "doubleSided": true,
      "extensions": {
        "KHR_materials_specular": {
          "specularFactor": 0.7333333492279053
        }
      },
      "name": "fin_blue",
      "pbrMetallicRoughness": {
        "baseColorTexture": {
          "index": 3
        },
        "metallicFactor": 0,
        "roughnessFactor": 0.800000011920929
      }
    },
    {
      "doubleSided": true,
      "extensions": {
        "KHR_materials_specular": {
          "specularFactor": 0.6733333468437195
        }
      },
      "name": "finlet_yellow",
      "pbrMetallicRoughness": {
        "baseColorTexture": {
          "index": 4
        },
        "metallicFactor": 0,
        "roughnessFactor": 0.7878679633140564
      }
    },
    {
      "doubleSided": true,
      "extensions": {
        "KHR_materials_specular": {
          "specularColorFactor": [
            1.4866666793823242,
            1.4866666793823242,
            1.4866666793823242
          ]
        }
      },
      "name": "eye_black",
      "pbrMetallicRoughness": {
        "baseColorTexture": {
          "index": 5
        },
        "metallicFactor": 0,
        "roughnessFactor": 0.6837722063064575
      }
    },
    {
      "doubleSided": true,
      "extensions": {
        "KHR_materials_specular": {
          "specularColorFactor": [
            1.8666666746139526,
            1.8666666746139526,
            1.8666666746139526
          ]
        }
      },
      "name": "eye_glint",
      "pbrMetallicRoughness": {
        "baseColorTexture": {
          "index": 6
        },
        "metallicFactor": 0,
        "roughnessFactor": 0.6535898447036743
      }
    }
  ],
  "meshes": [
    {
      "name": "Tuna_300Poly",
      "primitives": [
        {
          "attributes": {
            "POSITION": 0,
            "NORMAL": 1,
            "TEXCOORD_0": 2,
            "JOINTS_0": 28,
            "WEIGHTS_0": 29
          },
          "indices": 3,
          "material": 0
        },
        {
          "attributes": {
            "POSITION": 4,
            "NORMAL": 5,
            "TEXCOORD_0": 6,
            "JOINTS_0": 30,
            "WEIGHTS_0": 31
          },
          "indices": 7,
          "material": 1
        },
        {
          "attributes": {
            "POSITION": 8,
            "NORMAL": 9,
            "TEXCOORD_0": 10,
            "JOINTS_0": 32,
            "WEIGHTS_0": 33
          },
          "indices": 11,
          "material": 2
        },
        {
          "attributes": {
            "POSITION": 12,
            "NORMAL": 13,
            "TEXCOORD_0": 14,
            "JOINTS_0": 34,
            "WEIGHTS_0": 35
          },
          "indices": 15,
          "material": 3
        },
        {
          "attributes": {
            "POSITION": 16,
            "NORMAL": 17,
            "TEXCOORD_0": 18,
            "JOINTS_0": 36,
            "WEIGHTS_0": 37
          },
          "indices": 19,
          "material": 4
        },
        {
          "attributes": {
            "POSITION": 20,
            "NORMAL": 21,
            "TEXCOORD_0": 22,
            "JOINTS_0": 38,
            "WEIGHTS_0": 39
          },
          "indices": 23,
          "material": 5
        },
        {
          "attributes": {
            "POSITION": 24,
            "NORMAL": 25,
            "TEXCOORD_0": 26,
            "JOINTS_0": 40,
            "WEIGHTS_0": 41
          },
          "indices": 27,
          "material": 6
        }
      ]
    }
  ],
  "textures": [
    {
      "sampler": 0,
      "source": 0
    },
    {
      "sampler": 0,
      "source": 0
    },
    {
      "sampler": 0,
      "source": 0
    },
    {
      "sampler": 0,
      "source": 0
    },
    {
      "sampler": 0,
      "source": 0
    },
    {
      "sampler": 0,
      "source": 0
    },
    {
      "sampler": 0,
      "source": 0
    }
  ],
  "images": [
    {
      "mimeType": "image/png",
      "name": "tuna",
      "uri": "tuna.png"
    }
  ],
  "accessors": [
    {
      "bufferView": 0,
      "componentType": 5126,
      "count": 126,
      "max": [
        1.9107924699783325,
        0.4232049882411957,
        0.47999998927116394
      ],
      "min": [
        -1.4500000476837158,
        -0.3808850049972534,
        -0.47999998927116394
      ],
      "type": "VEC3"
    },
    {
      "bufferView": 1,
      "componentType": 5126,
      "count": 126,
      "type": "VEC3"
    },
    {
      "bufferView": 2,
      "componentType": 5126,
      "count": 126,
      "type": "VEC2"
    },
    {
      "bufferView": 3,
      "componentType": 5123,
      "count": 126,
      "type": "SCALAR"
    },
    {
      "bufferView": 4,
      "componentType": 5126,
      "count": 206,
      "max": [
        1.5499999523162842,
        0.6847609877586365,
        0.47999998927116394
      ],
      "min": [
        -1.4700000286102295,
        -0.1283929944038391,
        -0.3883279860019684
      ],
      "type": "VEC3"
    },
    {
      "bufferView": 5,
      "componentType": 5126,
      "count": 206,
      "type": "VEC3"
    },
    {
      "bufferView": 6,
      "componentType": 5126,
      "count": 206,
      "type": "VEC2"
    },
    {
      "bufferView": 7,
      "componentType": 5123,
      "count": 222,
      "type": "SCALAR"
    },
    {
      "bufferView": 8,
      "componentType": 5126,
      "count": 176,
      "max": [
        1.5499999523162842,
        0,
        0.3883279860019684
      ],
      "min": [
        -1.4500000476837158,
        -0.6162850260734558,
        -0.47999998927116394
      ],
      "type": "VEC3"
    },
    {
      "bufferView": 9,
      "componentType": 5126,
      "count": 176,
      "type": "VEC3"
    },
    {
      "bufferView": 10,
      "componentType": 5126,
      "count": 176,
      "type": "VEC2"
    },
    {
      "bufferView": 11,
      "componentType": 5123,
      "count": 192,
      "type": "SCALAR"
    },
    {
      "bufferView": 12,
      "componentType": 5126,
      "count": 146,
      "max": [
        0.6800000071525574,
        1.1200000047683716,
        0.9300000071525574
      ],
      "min": [
        -2.130000114440918,
        -0.9200000166893005,
        -0.9300000071525574
      ],
      "type": "VEC3"
    },
    {
      "bufferView": 13,
      "componentType": 5126,
      "count": 146,
      "type": "VEC3"
    },
    {
      "bufferView": 14,
      "componentType": 5126,
      "count": 146,
      "type": "VEC2"
    },
    {
      "bufferView": 15,
      "componentType": 5123,
      "count": 216,
      "type": "SCALAR"
    },
    {
      "bufferView": 16,
      "componentType": 5126,
      "count": 72,
      "max": [
        -0.5799999833106995,
        0.7300000190734863,
        0.02500000037252903
      ],
      "min": [
        -1.2899999618530273,
        -0.6899999976158142,
        -0.02500000037252903
      ],
      "type": "VEC3"
    },
    {
      "bufferView": 17,
      "componentType": 5126,
      "count": 72,
      "type": "VEC3"
    },
    {
      "bufferView": 18,
      "componentType": 5126,
      "count": 72,
      "type": "VEC2"
    },
    {
      "bufferView": 19,
      "componentType": 5123,
      "count": 96,
      "type": "SCALAR"
    },
    {
      "bufferView": 20,
      "componentType": 5126,
      "count": 18,
      "max": [
        1.4249999523162842,
        0.32499998807907104,
        0.3449999988079071
      ],
      "min": [
        1.215000033378601,
        0.11500000208616257,
        -0.3449999988079071
      ],
      "type": "VEC3"
    },
    {
      "bufferView": 21,
      "componentType": 5126,
      "count": 18,
      "type": "VEC3"
    },
    {
      "bufferView": 22,
      "componentType": 5126,
      "count": 18,
      "type": "VEC2"
    },
    {
      "bufferView": 23,
      "componentType": 5123,
      "count": 42,
      "type": "SCALAR"
    },
    {
      "bufferView": 24,
      "componentType": 5126,
      "count": 6,
      "max": [
        1.394245982170105,
        0.32499998807907104,
        0.3449999988079071
      ],
      "min": [
        1.3200000524520874,
        0.2199999988079071,
        -0.3449999988079071
      ],
      "type": "VEC3"
    },
    {
      "bufferView": 25,
      "componentType": 5126,
      "count": 6,
      "type": "VEC3"
    },
    {
      "bufferView": 26,
      "componentType": 5126,
      "count": 6,
      "type": "VEC2"
    },
    {
      "bufferView": 27,
      "componentType": 5123,
      "count": 6,
      "type": "SCALAR"
    },
    {
      "bufferView": 28,
      "componentType": 5121,
      "count": 126,
      "type": "VEC4"
    },
    {
      "bufferView": 29,
      "componentType": 5126,
      "count": 126,
      "type": "VEC4"
    },
    {
      "bufferView": 30,
      "componentType": 5121,
      "count": 206,
      "type": "VEC4"
    },
    {
      "bufferView": 31,
      "componentType": 5126,
      "count": 206,
      "type": "VEC4"
    },
    {
      "bufferView": 32,
      "componentType": 5121,
      "count": 176,
      "type": "VEC4"
    },
    {
      "bufferView": 33,
      "componentType": 5126,
      "count": 176,
      "type": "VEC4"
    },
    {
      "bufferView": 34,
      "componentType": 5121,
      "count": 146,
      "type": "VEC4"
    },
    {
      "bufferView": 35,
      "componentType": 5126,
      "count": 146,
      "type": "VEC4"
    },
    {
      "bufferView": 36,
      "componentType": 5121,
      "count": 72,
      "type": "VEC4"
    },
    {
      "bufferView": 37,
      "componentType": 5126,
      "count": 72,
      "type": "VEC4"
    },
    {
      "bufferView": 38,
      "componentType": 5121,
      "count": 18,
      "type": "VEC4"
    },
    {
      "bufferView": 39,
      "componentType": 5126,
      "count": 18,
      "type": "VEC4"
    },
    {
      "bufferView": 40,
      "componentType": 5121,
      "count": 6,
      "type": "VEC4"
    },
    {
      "bufferView": 41,
      "componentType": 5126,
      "count": 6,
      "type": "VEC4"
    },
    {
      "bufferView": 42,
      "componentType": 5126,
      "count": 4,
      "type": "MAT4"
    },
    {
      "bufferView": 43,
      "componentType": 5126,
      "count": 17,
      "type": "SCALAR",
      "min": [
        0.0
      ],
      "max": [
        1.6
      ]
    },
    {
      "bufferView": 44,
      "componentType": 5126,
      "count": 17,
      "type": "VEC4"
    },
    {
      "bufferView": 45,
      "componentType": 5126,
      "count": 17,
      "type": "VEC4"
    },
    {
      "bufferView": 46,
      "componentType": 5126,
      "count": 17,
      "type": "VEC4"
    }
  ],
  "bufferViews": [
    {
      "buffer": 0,
      "byteLength": 1512,
      "byteOffset": 0,
      "target": 34962
    },
    {
      "buffer": 0,
      "byteLength": 1512,
      "byteOffset": 1512,
      "target": 34962
    },
    {
      "buffer": 0,
      "byteLength": 1008,
      "byteOffset": 3024,
      "target": 34962
    },
    {
      "buffer": 0,
      "byteLength": 252,
      "byteOffset": 4032,
      "target": 34963
    },
    {
      "buffer": 0,
      "byteLength": 2472,
      "byteOffset": 4284,
      "target": 34962
    },
    {
      "buffer": 0,
      "byteLength": 2472,
      "byteOffset": 6756,
      "target": 34962
    },
    {
      "buffer": 0,
      "byteLength": 1648,
      "byteOffset": 9228,
      "target": 34962
    },
    {
      "buffer": 0,
      "byteLength": 444,
      "byteOffset": 10876,
      "target": 34963
    },
    {
      "buffer": 0,
      "byteLength": 2112,
      "byteOffset": 11320,
      "target": 34962
    },
    {
      "buffer": 0,
      "byteLength": 2112,
      "byteOffset": 13432,
      "target": 34962
    },
    {
      "buffer": 0,
      "byteLength": 1408,
      "byteOffset": 15544,
      "target": 34962
    },
    {
      "buffer": 0,
      "byteLength": 384,
      "byteOffset": 16952,
      "target": 34963
    },
    {
      "buffer": 0,
      "byteLength": 1752,
      "byteOffset": 17336,
      "target": 34962
    },
    {
      "buffer": 0,
      "byteLength": 1752,
      "byteOffset": 19088,
      "target": 34962
    },
    {
      "buffer": 0,
      "byteLength": 1168,
      "byteOffset": 20840,
      "target": 34962
    },
    {
      "buffer": 0,
      "byteLength": 432,
      "byteOffset": 22008,
      "target": 34963
    },
    {
      "buffer": 0,
      "byteLength": 864,
      "byteOffset": 22440,
      "target": 34962
    },
    {
      "buffer": 0,
      "byteLength": 864,
      "byteOffset": 23304,
      "target": 34962
    },
    {
      "buffer": 0,
      "byteLength": 576,
      "byteOffset": 24168,
      "target": 34962
    },
    {
      "buffer": 0,
      "byteLength": 192,
      "byteOffset": 24744,
      "target": 34963
    },
    {
      "buffer": 0,
      "byteLength": 216,
      "byteOffset": 24936,
      "target": 34962
    },
    {
      "buffer": 0,
      "byteLength": 216,
      "byteOffset": 25152,
      "target": 34962
    },
    {
      "buffer": 0,
      "byteLength": 144,
      "byteOffset": 25368,
      "target": 34962
    },
    {
      "buffer": 0,
      "byteLength": 84,
      "byteOffset": 25512,
      "target": 34963
    },
    {
      "buffer": 0,
      "byteLength": 72,
      "byteOffset": 25596,
      "target": 34962
    },
    {
      "buffer": 0,
      "byteLength": 72,
      "byteOffset": 25668,
      "target": 34962
    },
    {
      "buffer": 0,
      "byteLength": 48,
      "byteOffset": 25740,
      "target": 34962
    },
    {
      "buffer": 0,
      "byteLength": 12,
      "byteOffset": 25788,
      "target": 34963
    },
    {
      "buffer": 0,
      "byteOffset": 25800,
      "byteLength": 504,
      "target": null
    },
    {
      "buffer": 0,
      "byteOffset": 26304,
      "byteLength": 2016,
      "target": null
    },
    {
      "buffer": 0,
      "byteOffset": 28320,
      "byteLength": 824,
      "target": null
    },
    {
      "buffer": 0,
      "byteOffset": 29144,
      "byteLength": 3296,
      "target": null
    },
    {
      "buffer": 0,
      "byteOffset": 32440,
      "byteLength": 704,
      "target": null
    },
    {
      "buffer": 0,
      "byteOffset": 33144,
      "byteLength": 2816,
      "target": null
    },
    {
      "buffer": 0,
      "byteOffset": 35960,
      "byteLength": 584,
      "target": null
    },
    {
      "buffer": 0,
      "byteOffset": 36544,
      "byteLength": 2336,
      "target": null
    },
    {
      "buffer": 0,
      "byteOffset": 38880,
      "byteLength": 288,
      "target": null
    },
    {
      "buffer": 0,
      "byteOffset": 39168,
      "byteLength": 1152,
      "target": null
    },
    {
      "buffer": 0,
      "byteOffset": 40320,
      "byteLength": 72,
      "target": null
    },
    {
      "buffer": 0,
      "byteOffset": 40392,
      "byteLength": 288,
      "target": null
    },
    {
      "buffer": 0,
      "byteOffset": 40680,
      "byteLength": 24,
      "target": null
    },
    {
      "buffer": 0,
      "byteOffset": 40704,
      "byteLength": 96,
      "target": null
    },
    {
      "buffer": 0,
      "byteOffset": 40800,
      "byteLength": 256
    },
    {
      "buffer": 0,
      "byteOffset": 41056,
      "byteLength": 68
    },
    {
      "buffer": 0,
      "byteOffset": 41124,
      "byteLength": 272
    },
    {
      "buffer": 0,
      "byteOffset": 41396,
      "byteLength": 272
    },
    {
      "buffer": 0,
      "byteOffset": 41668,
      "byteLength": 272
    }
  ],
  "samplers": [
    {
      "magFilter": 9729,
      "minFilter": 9987
    }
  ],
  "buffers": [
    {
      "byteLength": 41940,
      "uri": "tuna.bin"
    }
  ],
  "skins": [
    {
      "name": "Tuna_Skeleton",
      "inverseBindMatrices": 42,
      "skeleton": 2,
      "joints": [
        2,
        3,
        4,
        5
      ]
    }
  ],
  "animations": [
    {
      "name": "Swim_Loop",
      "samplers": [
        {
          "input": 43,
          "interpolation": "LINEAR",
          "output": 44
        },
        {
          "input": 43,
          "interpolation": "LINEAR",
          "output": 45
        },
        {
          "input": 43,
          "interpolation": "LINEAR",
          "output": 46
        }
      ],
      "channels": [
        {
          "sampler": 0,
          "target": {
            "node": 3,
            "path": "rotation"
          }
        },
        {
          "sampler": 1,
          "target": {
            "node": 4,
            "path": "rotation"
          }
        },
        {
          "sampler": 2,
          "target": {
            "node": 5,
            "path": "rotation"
          }
        }
      ],
      "extras": {
        "loop": true
      }
    }
  ]
}